# xmcd
#
# Track frame offsets:
#	150
#	10148
#	22651
#	34039
#	49633
#	61903
#	73584
#	85568
#	96226
#	106756
#	116335
#	126963
#	138297
#	150108
#	163634
#	174062
#	184327
#	196673
#	207866
#	219255
#	229075
#	240193
#	251536
#
# Disc length: 3503 seconds
#
# Revision: 0
# Processed by: cddbd v1.5.2PL0 Copyright (c) Steve Scherf et al.
# Submitted via: audiograbber 1.83.01
#
DISCID=0d0dad17
DTITLE=Bill Haley and his Comets - The Essential CD1
DYEAR=2012
DGENRE=Rock`n Roll
TTITLE0=(We`re Gonna) Rock Around The Clock
TTITLE1=See You Later, Alligator
TTITLE2=Shake, Rattle And Roll
TTITLE3=The Saints Rock`n` Roll
TTITLE4=Razzle-Dazzle
TTITLE5=Forty Cups Of Coffee
TTITLE6=Crazy Man, Crazy
TTITLE7=R-O-C-K
TTITLE8=Real Rock Drive
TTITLE9=I`ll Be True
TTITLE10=Rip It Up
TTITLE11=What`cha Gonna Do ?
TTITLE12=Hot Dog, Buddy Buddy
TTITLE13=Skinny Minnie
TTITLE14=Hey Then, There Now
TTITLE15=Caravan
TTITLE16=(You Hit The Wrong Note) Billy Goat
TTITLE17=ABC Boogie
TTITLE18=Dim, Dim The Lights (I Want Some Atmosphere)
TTITLE19=Fractured
TTITLE20=Corrine, Corrina
TTITLE21=Don`t Nobody Move
TTITLE22=Sundown Boogie (With The Saddlemen)
EXTD=
EXTT0=
EXTT1=
EXTT2=
EXTT3=
EXTT4=
EXTT5=
EXTT6=
EXTT7=
EXTT8=
EXTT9=
EXTT10=
EXTT11=
EXTT12=
EXTT13=
EXTT14=
EXTT15=
EXTT16=
EXTT17=
EXTT18=
EXTT19=
EXTT20=
EXTT21=
EXTT22=
PLAYORDER=
